<svg width="1920" height="932" viewBox="0 0 1920 932" fill="none" xmlns="http://www.w3.org/2000/svg">
<path d="M0 0H1920V932H0V0Z" fill="white"/>
<path d="M900.414 487.207C900.414 701.607 726.607 875.414 512.207 875.414C297.806 875.414 124 701.607 124 487.207C124 272.806 297.806 99 512.207 99C726.607 99 900.414 272.806 900.414 487.207Z" fill="url(#paint0_radial_107_37)"/>
<g filter="url(#filter0_d_107_37)">
<path d="M444.908 538.944C444.263 539.341 443.799 539.981 443.599 540.733C443.4 541.484 443.481 542.287 443.844 542.952C444.677 544.457 445.561 545.869 446.46 547.257C453.922 558.527 462.363 568.877 471.813 578.623C485.044 592.107 505.272 593.128 521.501 590.549C523.206 590.287 524.899 589.988 526.548 589.67C528.641 589.273 530.444 588.062 531.547 586.242C532.65 584.425 532.963 582.146 532.43 579.97C531.897 577.795 530.567 575.919 528.748 574.818C526.929 573.713 524.77 573.473 522.731 574.088C521.281 574.529 519.843 574.943 518.404 575.32C504.52 579.018 489.411 579.405 479.031 570.814C469.22 562.617 459.909 553.365 451.742 543.439C450.767 542.231 449.804 540.992 448.967 539.797C448.535 539.173 447.855 538.74 447.095 538.579C446.333 538.42 445.553 538.547 444.908 538.944Z" fill="#B96E8F"/>
<path d="M332.879 612.584C332.122 612.747 331.458 613.204 331.02 613.858C330.584 614.511 330.411 615.308 330.55 616.07C331.075 618.909 331.74 621.767 332.456 624.54C338.261 645.66 346.499 666.738 362.71 683.599C388.947 704.847 420.378 705.48 450.066 707.442C452.979 707.523 455.883 707.558 458.838 707.521C460.966 707.498 462.973 706.625 464.414 705.059C465.855 703.495 466.613 701.367 466.524 699.179C466.434 696.989 465.504 694.928 463.939 693.488C462.375 692.046 460.304 691.342 458.181 691.493C455.501 691.686 452.792 691.815 450.059 691.9C422.33 692.127 390.524 691.414 369.819 676.079C355.021 662.568 345.376 642.633 338.715 622.726C337.872 620.117 337.079 617.42 336.433 614.81C336.248 614.058 335.762 613.402 335.097 612.985C334.43 612.568 333.636 612.422 332.879 612.584Z" fill="#B96E8F"/>
<path d="M313.841 677.65C313.13 677.939 312.56 678.5 312.24 679.215C311.922 679.929 311.881 680.74 312.141 681.462C312.906 683.569 313.788 685.65 314.807 687.679C323.109 705.306 342.58 714.488 360.132 718.384C382.911 722.811 404.285 717.108 424.644 709.544C426.745 708.706 428.859 707.803 430.98 706.792C432.905 705.883 434.357 704.256 434.994 702.226C435.633 700.198 435.405 697.932 434.382 695.971C433.359 694.01 431.632 692.527 429.603 691.89C427.574 691.251 425.408 691.511 423.561 692.569C421.914 693.522 420.147 694.449 418.362 695.329C400.878 703.593 380.612 710.178 362.184 707.909C345.527 705.451 328.952 699.127 320.52 684.542C319.487 682.834 318.554 681.046 317.715 679.199C317.398 678.5 316.803 677.948 316.077 677.657C315.35 677.367 314.551 677.362 313.841 677.65Z" fill="#B96E8F"/>
<path d="M548.88 325.143C548.204 325.526 547.706 326.163 547.486 326.919C547.266 327.675 547.342 328.489 547.707 329.175C549.21 332 550.72 334.836 552.231 337.675C555.749 344.285 559.264 350.889 562.787 357.506C574.739 379.92 583.224 405.313 578.539 429.139C573.976 452.002 565.989 475.49 552.269 492.308C550.458 494.41 548.507 496.304 546.658 497.602C544.931 498.845 543.788 500.714 543.502 502.822C543.214 504.929 543.805 507.104 545.126 508.842C546.447 510.581 548.385 511.732 550.492 512.019C552.601 512.307 554.707 511.706 556.366 510.374C559.594 507.799 562.103 504.971 564.336 502.104C580.152 480.179 586.366 455.673 590.138 431.063C594.029 402.735 582.908 376.199 569.475 353.719C565.613 347.294 561.759 340.882 557.902 334.464C556.245 331.708 554.59 328.954 552.942 326.212C552.541 325.545 551.882 325.062 551.12 324.861C550.358 324.661 549.556 324.76 548.88 325.143Z" fill="#B96E8F"/>
<path d="M460.723 392.643C459.966 392.866 459.329 393.367 458.947 394.048C458.566 394.728 458.47 395.534 458.675 396.296C458.881 397.057 459.371 397.713 460.043 398.11C463.173 399.966 466.323 401.989 469.406 404.038C482.777 412.996 495.667 422.818 507.057 433.875C526.787 453.781 540.241 481.297 543.647 508.444C545.749 529.582 545.026 551.195 542.046 572.183C541.521 575.789 540.917 579.365 540.213 582.856C539.793 584.942 540.228 587.092 541.447 588.836C542.664 590.58 544.566 591.776 546.708 592.157C548.849 592.537 551.048 592.069 552.791 590.851C554.536 589.633 555.682 587.765 556.007 585.662C556.608 581.793 557.083 577.933 557.472 574.068C559.631 551.649 559.38 529.168 556.167 506.879C550.722 475.958 535.432 448.474 512.987 427.522C500.503 416.449 486.951 407.079 472.893 398.534C469.646 396.579 466.353 394.662 462.984 392.863C462.295 392.497 461.479 392.421 460.723 392.643Z" fill="#B96E8F"/>
<path d="M636.576 265.143C636.042 265.446 635.648 265.948 635.468 266.548C635.29 267.148 635.341 267.795 635.621 268.341C635.29 267.683 635.412 267.567 635.378 267.584C635.369 267.606 635.344 267.724 635.303 267.866C635.224 268.153 635.098 268.536 634.973 268.9C634.713 269.664 634.426 270.475 634.15 271.307C629.759 284.223 629.844 298.169 631.555 311.42C633.445 327.72 635.793 347.663 628.963 358.101C628.311 358.926 627.622 359.525 626.883 359.961C625.449 360.88 624.463 362.32 624.167 363.997C623.87 365.672 624.286 367.446 625.3 368.897C626.314 370.348 627.838 371.348 629.514 371.644C631.19 371.941 632.88 371.511 634.236 370.481C636.261 368.988 637.934 367.115 639.192 365.168C649.058 344.344 642.434 327.3 639.748 310.025C637.15 297.668 636.078 284.894 639.155 272.764C639.354 271.957 639.565 271.168 639.783 270.314C639.886 269.899 640 269.45 640.101 268.919C640.152 268.637 640.199 268.383 640.227 267.948C640.22 267.587 640.342 266.981 639.809 265.97C639.485 265.448 638.956 265.072 638.35 264.916C637.744 264.762 637.11 264.841 636.576 265.143Z" fill="#B96E8F"/>
<path d="M563.134 289.383C562.401 289.688 561.815 290.268 561.509 290.997C558.859 303.527 567.373 311.082 573.989 317.195C576.152 319.039 578.404 320.731 580.734 322.329C603.451 337.225 621.16 357.725 629.755 383.424C641.835 418.486 641.885 459.136 627.461 493.13C611.427 529.61 580.887 558.5 546.934 579.492C512.521 601.179 483.77 631.401 465.424 668.326C460.118 679.385 455.901 691.408 455.01 704.516C454.434 714.512 455.628 725.379 462.162 735.18C463.364 736.935 465.212 738.134 467.307 738.505C469.401 738.876 471.571 738.389 473.331 737.159C475.091 735.929 476.294 734.057 476.665 731.963C477.036 729.868 476.545 727.722 475.31 725.99C471.674 720.93 470.14 713.113 470.525 705.379C470.998 695.181 474.302 684.66 478.887 674.681C494.903 640.667 521.903 610.996 553.664 590.235C588.83 567.534 620.44 536.743 637.009 497.179C651.925 459.649 650.953 417.844 637.408 380.464C628.167 353.979 607.89 331.338 584.455 316.795C582.26 315.348 580.159 313.828 578.174 312.199C571.792 307.182 565.741 299.04 567.08 293.268C567.371 292.534 567.357 291.71 567.046 290.98C566.735 290.249 566.151 289.671 565.42 289.373C564.688 289.075 563.868 289.079 563.134 289.383Z" fill="#B96E8F"/>
<path d="M705.434 341.916C704.651 341.958 703.909 342.291 703.383 342.854C701.688 344.678 700.124 346.541 698.671 348.499C678.385 372.286 697.912 405.618 684.12 423.804C676.716 435.813 664.663 444.876 651.952 447.216C650.111 447.543 648.252 447.694 646.773 447.598C644.647 447.506 642.601 448.269 641.086 449.763C639.571 451.255 638.71 453.356 638.694 455.56C638.678 457.765 639.508 459.88 641.001 461.394C642.494 462.91 644.529 463.701 646.656 463.64C649.82 463.568 652.636 463.064 655.338 462.383C673.136 457.635 686.797 444.85 694.699 429.873C709.713 400.129 687.199 373.587 704.035 352.2C705.2 350.366 706.49 348.579 707.925 346.8C708.408 346.2 708.635 345.419 708.566 344.638C708.497 343.857 708.138 343.141 707.557 342.637C706.976 342.132 706.217 341.876 705.434 341.916Z" fill="#B96E8F"/>
<path d="M477.954 498.427C477.19 498.466 476.468 498.808 475.932 499.377C475.398 499.946 475.091 500.697 475.098 501.462C475.038 502.802 474.699 505.158 474.547 507.17C474.037 513.134 474.411 519.449 476.242 525.485C480.176 541.318 488.039 558.252 499.731 570.933C510.056 582.557 524.334 589.882 539.808 592.454C542.084 592.805 544.416 593.049 546.928 593.069C549.057 593.102 551.076 592.28 552.539 590.735C554.002 589.193 554.791 587.051 554.731 584.835C554.672 582.619 553.77 580.523 552.226 579.062C550.682 577.597 548.621 576.885 546.497 577.032C545.031 577.155 543.336 577.14 541.638 577.022C529.674 576.1 517.329 571.114 508.481 562.616C496.866 551.771 489.217 538.625 483.76 522.91C481.858 518.122 481.052 512.877 481.059 507.438C481.032 505.464 481.213 503.804 481.106 501.154C481.034 500.392 480.651 499.676 480.06 499.164C479.469 498.654 478.718 498.388 477.954 498.427Z" fill="#B96E8F"/>
</g>
<g filter="url(#filter1_d_107_37)">
<path d="M422.326 417.938C420.628 415.719 417.133 417.836 418.311 420.369C428.271 442.118 445.093 465.768 470.655 468.939C473.943 469.329 477.252 469.346 480.545 469.02C477.235 469.024 473.978 468.697 470.803 468.031C449.146 463.293 435.505 444.781 425.999 425.627C428.907 426.422 431.962 426.496 434.562 426.465C447.009 425.956 458.702 423.86 470.173 426.39C483.607 429.343 496.411 436.413 506.641 445.934C508.924 448.172 511.484 450.302 512.025 453.254C512.533 456.413 509.176 458.668 506.318 459.998C509.234 458.925 513.092 457.131 512.941 453.165C512.588 449.595 509.911 447.106 507.907 444.765C498.103 434.1 485.423 426.033 471.114 422.313C458.82 419.136 446.113 421.18 434.477 421.625C429.582 421.725 424.705 421.158 422.326 417.938Z" fill="#B96E8F"/>
<path d="M446.453 442.79C445.812 442.765 445.172 443.01 444.683 443.463C444.193 443.915 443.899 444.535 443.874 445.176C443.849 445.818 444.096 446.429 444.55 446.883C445.352 447.691 446.148 448.446 446.978 449.193C461.817 463.262 484.793 465.614 502.308 457.537C503.265 457.1 504.262 456.603 505.173 456.088C504.225 456.531 503.198 456.953 502.216 457.313C484.115 464 462.695 459.738 450.174 445.886C449.463 445.142 448.786 444.392 448.103 443.595C447.685 443.107 447.095 442.814 446.453 442.79Z" fill="#B96E8F"/>
<path d="M415.738 463.273C413.228 462.045 411.046 465.499 413.23 467.241C431.851 482.257 457.46 495.912 481.749 487.34C484.866 486.222 487.835 484.76 490.636 482.998C487.676 484.479 484.616 485.641 481.477 486.462C459.982 491.888 439.513 481.412 422.457 468.514C425.414 467.927 428.181 466.63 430.494 465.442C441.404 459.431 450.933 452.336 462.327 449.48C475.667 446.126 490.28 446.738 503.684 450.691C506.726 451.676 509.968 452.439 511.77 454.839C513.634 457.44 511.636 460.955 509.673 463.421C511.803 461.16 514.455 457.832 512.549 454.351C510.64 451.313 507.133 450.282 504.295 449.081C490.762 443.913 475.814 442.354 461.349 445.411C448.93 448.056 438.472 455.557 428.257 461.148C423.922 463.423 419.304 465.093 415.738 463.273Z" fill="#B96E8F"/>
<path d="M448.407 474.751C447.822 475.015 447.359 475.521 447.123 476.144C446.887 476.767 446.901 477.454 447.165 478.038C447.429 478.624 447.922 479.06 448.531 479.264C449.61 479.629 450.658 479.949 451.735 480.247C471.293 486.214 492.903 478.063 504.971 463.018C505.633 462.2 506.304 461.309 506.888 460.443C506.238 461.262 505.507 462.098 504.789 462.858C491.577 476.922 470.506 482.668 453.118 475.861C452.15 475.513 451.209 475.144 450.243 474.736C449.651 474.486 448.992 474.487 448.407 474.751Z" fill="#B96E8F"/>
<path d="M495.146 508.678C495.589 510.264 493.196 511.218 492.398 509.775C485.493 497.462 480.292 481.182 488.576 467.757C489.651 466.037 490.918 464.435 492.348 462.959C491.07 464.554 489.977 466.238 489.082 467.999C483.076 480.081 486.965 493.053 492.764 504.251C493.492 502.574 494.632 501.076 495.65 499.832C500.698 494.004 506.239 489.088 509.41 482.682C513.129 475.182 514.57 466.565 513.81 458.343C513.583 456.47 513.518 454.499 512.268 453.219C510.903 451.883 508.496 452.724 506.737 453.643C508.391 452.607 510.764 451.366 512.665 452.808C514.293 454.211 514.49 456.362 514.875 458.136C516.365 466.548 515.463 475.449 511.787 483.636C508.619 490.662 502.712 496.085 498.008 501.544C496.072 503.871 494.473 506.419 495.146 508.678Z" fill="#B96E8F"/>
<path d="M492.157 488.464C491.922 488.782 491.554 489.006 491.142 489.085C490.73 489.165 490.31 489.093 489.984 488.884C489.657 488.674 489.45 488.344 489.401 487.969C489.311 487.302 489.245 486.658 489.196 486C487.964 473.984 495.656 462.09 506.396 456.431C506.981 456.12 507.611 455.811 508.216 455.55C507.632 455.854 507.028 456.203 506.472 456.553C496.192 462.974 490.043 474.778 492.061 485.6C492.154 486.2 492.264 486.786 492.394 487.39C492.474 487.76 492.392 488.146 492.157 488.464Z" fill="#B96E8F"/>
<path d="M526.795 509.704C527.981 510.845 526.406 512.883 524.985 512.045C512.782 504.947 500.031 493.567 500.347 477.795C500.398 475.767 500.675 473.744 501.157 471.746C500.867 473.769 500.781 475.775 500.905 477.747C501.87 491.205 511.809 500.402 522.494 507.101C522.269 505.287 522.49 503.417 522.734 501.829C524.122 494.245 526.397 487.195 525.874 480.066C525.267 471.717 522.13 463.563 517.298 456.867C516.151 455.368 515.094 453.704 513.367 453.236C511.513 452.78 509.866 454.727 508.819 456.412C509.716 454.679 511.13 452.404 513.5 452.681C515.615 453.062 516.877 454.814 518.11 456.148C523.667 462.636 527.413 470.761 528.406 479.68C529.246 487.342 526.914 495.014 525.636 502.105C525.15 505.093 525.067 508.1 526.795 509.704Z" fill="#B96E8F"/>
<path d="M513.96 493.805C513.919 494.198 513.716 494.578 513.402 494.856C513.087 495.134 512.689 495.285 512.302 495.27C511.914 495.256 511.568 495.077 511.335 494.778C510.919 494.25 510.534 493.729 510.158 493.186C502.992 483.463 503.575 469.31 509.951 458.98C510.297 458.415 510.682 457.828 511.071 457.296C510.722 457.854 510.379 458.463 510.078 459.046C504.486 469.799 505.186 483.09 512.423 491.387C512.808 491.856 513.2 492.305 513.619 492.759C513.876 493.037 514.001 493.411 513.96 493.805Z" fill="#B96E8F"/>
</g>
<path d="M543.562 454.281C543.562 471.557 529.557 485.562 512.281 485.562C495.005 485.562 481 471.557 481 454.281C481 437.005 495.005 423 512.281 423C529.557 423 543.562 437.005 543.562 454.281Z" fill="url(#paint1_radial_107_37)"/>
<defs>
<filter id="filter0_d_107_37" x="306.971" y="264.839" width="406.607" height="486.787" filterUnits="userSpaceOnUse" color-interpolation-filters="sRGB">
<feFlood flood-opacity="0" result="BackgroundImageFix"/>
<feColorMatrix in="SourceAlpha" type="matrix" values="0 0 0 0 0 0 0 0 0 0 0 0 0 0 0 0 0 0 127 0" result="hardAlpha"/>
<feOffset dy="8"/>
<feGaussianBlur stdDeviation="2.5"/>
<feComposite in2="hardAlpha" operator="out"/>
<feColorMatrix type="matrix" values="0 0 0 0 0 0 0 0 0 0 0 0 0 0 0 0 0 0 0.2 0"/>
<feBlend mode="normal" in2="BackgroundImageFix" result="effect1_dropShadow_107_37"/>
<feBlend mode="normal" in="SourceGraphic" in2="effect1_dropShadow_107_37" result="shape"/>
</filter>
<filter id="filter1_d_107_37" x="408.333" y="417.005" width="124.251" height="103.236" filterUnits="userSpaceOnUse" color-interpolation-filters="sRGB">
<feFlood flood-opacity="0" result="BackgroundImageFix"/>
<feColorMatrix in="SourceAlpha" type="matrix" values="0 0 0 0 0 0 0 0 0 0 0 0 0 0 0 0 0 0 127 0" result="hardAlpha"/>
<feOffset dy="4"/>
<feGaussianBlur stdDeviation="2"/>
<feComposite in2="hardAlpha" operator="out"/>
<feColorMatrix type="matrix" values="0 0 0 0 0 0 0 0 0 0 0 0 0 0 0 0 0 0 0.25 0"/>
<feBlend mode="normal" in2="BackgroundImageFix" result="effect1_dropShadow_107_37"/>
<feBlend mode="normal" in="SourceGraphic" in2="effect1_dropShadow_107_37" result="shape"/>
</filter>
<radialGradient id="paint0_radial_107_37" cx="0" cy="0" r="1" gradientUnits="userSpaceOnUse" gradientTransform="translate(512.207 487.207) rotate(90) scale(388.207)">
<stop stop-color="#B96E8F" stop-opacity="0.5"/>
<stop offset="1" stop-color="white" stop-opacity="0"/>
</radialGradient>
<radialGradient id="paint1_radial_107_37" cx="0" cy="0" r="1" gradientUnits="userSpaceOnUse" gradientTransform="translate(512.281 454.281) rotate(90) scale(31.2811)">
<stop offset="0.125" stop-color="#FF71B0" stop-opacity="0.62"/>
<stop offset="0.548077" stop-color="#FFA8CE" stop-opacity="0"/>
<stop offset="1" stop-color="white" stop-opacity="0"/>
</radialGradient>
</defs>
</svg>
